<mxfile host="app.diagrams.net" agent="Mozilla/5.0 (Windows NT 10.0; Win64; x64) AppleWebKit/537.36 (KHTML, like Gecko) Chrome/137.0.0.0 Safari/537.36" version="27.1.1">
  <diagram name="PÃ¡gina-1" id="UyzsNHCTP_0HLDwnywgG">
    <mxGraphModel dx="418" dy="390" grid="1" gridSize="10" guides="1" tooltips="1" connect="1" arrows="1" fold="1" page="1" pageScale="1" pageWidth="827" pageHeight="1169" math="0" shadow="0">
      <root>
        <mxCell id="0" />
        <mxCell id="1" parent="0" />
        <mxCell id="KiHBRrctgCg1EZzvczgn-1" value="Producto" style="swimlane;fontStyle=1;align=center;verticalAlign=top;childLayout=stackLayout;horizontal=1;startSize=26;horizontalStack=0;resizeParent=1;resizeParentMax=0;resizeLast=0;collapsible=1;marginBottom=0;whiteSpace=wrap;html=1;" parent="1" vertex="1">
          <mxGeometry x="334" y="10" width="160" height="164" as="geometry" />
        </mxCell>
        <mxCell id="KiHBRrctgCg1EZzvczgn-2" value="# nombre: String" style="text;strokeColor=none;fillColor=none;align=left;verticalAlign=top;spacingLeft=4;spacingRight=4;overflow=hidden;rotatable=0;points=[[0,0.5],[1,0.5]];portConstraint=eastwest;whiteSpace=wrap;html=1;" parent="KiHBRrctgCg1EZzvczgn-1" vertex="1">
          <mxGeometry y="26" width="160" height="26" as="geometry" />
        </mxCell>
        <mxCell id="KiHBRrctgCg1EZzvczgn-5" value="# precio: double" style="text;strokeColor=none;fillColor=none;align=left;verticalAlign=top;spacingLeft=4;spacingRight=4;overflow=hidden;rotatable=0;points=[[0,0.5],[1,0.5]];portConstraint=eastwest;whiteSpace=wrap;html=1;" parent="KiHBRrctgCg1EZzvczgn-1" vertex="1">
          <mxGeometry y="52" width="160" height="26" as="geometry" />
        </mxCell>
        <mxCell id="KiHBRrctgCg1EZzvczgn-3" value="" style="line;strokeWidth=1;fillColor=none;align=left;verticalAlign=middle;spacingTop=-1;spacingLeft=3;spacingRight=3;rotatable=0;labelPosition=right;points=[];portConstraint=eastwest;strokeColor=inherit;" parent="KiHBRrctgCg1EZzvczgn-1" vertex="1">
          <mxGeometry y="78" width="160" height="8" as="geometry" />
        </mxCell>
        <mxCell id="KiHBRrctgCg1EZzvczgn-4" value="# ctor" style="text;strokeColor=none;fillColor=none;align=left;verticalAlign=top;spacingLeft=4;spacingRight=4;overflow=hidden;rotatable=0;points=[[0,0.5],[1,0.5]];portConstraint=eastwest;whiteSpace=wrap;html=1;" parent="KiHBRrctgCg1EZzvczgn-1" vertex="1">
          <mxGeometry y="86" width="160" height="26" as="geometry" />
        </mxCell>
        <mxCell id="KiHBRrctgCg1EZzvczgn-8" value="# getters" style="text;strokeColor=none;fillColor=none;align=left;verticalAlign=top;spacingLeft=4;spacingRight=4;overflow=hidden;rotatable=0;points=[[0,0.5],[1,0.5]];portConstraint=eastwest;whiteSpace=wrap;html=1;" parent="KiHBRrctgCg1EZzvczgn-1" vertex="1">
          <mxGeometry y="112" width="160" height="26" as="geometry" />
        </mxCell>
        <mxCell id="KiHBRrctgCg1EZzvczgn-9" value="+ toString" style="text;strokeColor=none;fillColor=none;align=left;verticalAlign=top;spacingLeft=4;spacingRight=4;overflow=hidden;rotatable=0;points=[[0,0.5],[1,0.5]];portConstraint=eastwest;whiteSpace=wrap;html=1;" parent="KiHBRrctgCg1EZzvczgn-1" vertex="1">
          <mxGeometry y="138" width="160" height="26" as="geometry" />
        </mxCell>
        <mxCell id="pw6CtbTfDcQKC5DKzmvH-17" style="edgeStyle=orthogonalEdgeStyle;rounded=0;orthogonalLoop=1;jettySize=auto;html=1;endArrow=block;endFill=0;" edge="1" parent="1" source="KiHBRrctgCg1EZzvczgn-11">
          <mxGeometry relative="1" as="geometry">
            <mxPoint x="410" y="180" as="targetPoint" />
          </mxGeometry>
        </mxCell>
        <mxCell id="KiHBRrctgCg1EZzvczgn-11" value="Bebida" style="swimlane;fontStyle=1;align=center;verticalAlign=top;childLayout=stackLayout;horizontal=1;startSize=26;horizontalStack=0;resizeParent=1;resizeParentMax=0;resizeLast=0;collapsible=1;marginBottom=0;whiteSpace=wrap;html=1;" parent="1" vertex="1">
          <mxGeometry x="160" y="220" width="160" height="138" as="geometry" />
        </mxCell>
        <mxCell id="KiHBRrctgCg1EZzvczgn-12" value="# tamanio: String" style="text;strokeColor=none;fillColor=none;align=left;verticalAlign=top;spacingLeft=4;spacingRight=4;overflow=hidden;rotatable=0;points=[[0,0.5],[1,0.5]];portConstraint=eastwest;whiteSpace=wrap;html=1;" parent="KiHBRrctgCg1EZzvczgn-11" vertex="1">
          <mxGeometry y="26" width="160" height="26" as="geometry" />
        </mxCell>
        <mxCell id="KiHBRrctgCg1EZzvczgn-14" value="" style="line;strokeWidth=1;fillColor=none;align=left;verticalAlign=middle;spacingTop=-1;spacingLeft=3;spacingRight=3;rotatable=0;labelPosition=right;points=[];portConstraint=eastwest;strokeColor=inherit;" parent="KiHBRrctgCg1EZzvczgn-11" vertex="1">
          <mxGeometry y="52" width="160" height="8" as="geometry" />
        </mxCell>
        <mxCell id="KiHBRrctgCg1EZzvczgn-15" value="# ctor" style="text;strokeColor=none;fillColor=none;align=left;verticalAlign=top;spacingLeft=4;spacingRight=4;overflow=hidden;rotatable=0;points=[[0,0.5],[1,0.5]];portConstraint=eastwest;whiteSpace=wrap;html=1;" parent="KiHBRrctgCg1EZzvczgn-11" vertex="1">
          <mxGeometry y="60" width="160" height="26" as="geometry" />
        </mxCell>
        <mxCell id="KiHBRrctgCg1EZzvczgn-16" value="# getters" style="text;strokeColor=none;fillColor=none;align=left;verticalAlign=top;spacingLeft=4;spacingRight=4;overflow=hidden;rotatable=0;points=[[0,0.5],[1,0.5]];portConstraint=eastwest;whiteSpace=wrap;html=1;" parent="KiHBRrctgCg1EZzvczgn-11" vertex="1">
          <mxGeometry y="86" width="160" height="26" as="geometry" />
        </mxCell>
        <mxCell id="KiHBRrctgCg1EZzvczgn-17" value="+ toString" style="text;strokeColor=none;fillColor=none;align=left;verticalAlign=top;spacingLeft=4;spacingRight=4;overflow=hidden;rotatable=0;points=[[0,0.5],[1,0.5]];portConstraint=eastwest;whiteSpace=wrap;html=1;" parent="KiHBRrctgCg1EZzvczgn-11" vertex="1">
          <mxGeometry y="112" width="160" height="26" as="geometry" />
        </mxCell>
        <mxCell id="pw6CtbTfDcQKC5DKzmvH-18" style="edgeStyle=orthogonalEdgeStyle;rounded=0;orthogonalLoop=1;jettySize=auto;html=1;endArrow=block;endFill=0;" edge="1" parent="1" source="KiHBRrctgCg1EZzvczgn-18">
          <mxGeometry relative="1" as="geometry">
            <mxPoint x="410" y="180" as="targetPoint" />
          </mxGeometry>
        </mxCell>
        <mxCell id="KiHBRrctgCg1EZzvczgn-18" value="Comida" style="swimlane;fontStyle=1;align=center;verticalAlign=top;childLayout=stackLayout;horizontal=1;startSize=26;horizontalStack=0;resizeParent=1;resizeParentMax=0;resizeLast=0;collapsible=1;marginBottom=0;whiteSpace=wrap;html=1;" parent="1" vertex="1">
          <mxGeometry x="500" y="220" width="160" height="138" as="geometry" />
        </mxCell>
        <mxCell id="KiHBRrctgCg1EZzvczgn-19" value="# esCaliente: boolean" style="text;strokeColor=none;fillColor=none;align=left;verticalAlign=top;spacingLeft=4;spacingRight=4;overflow=hidden;rotatable=0;points=[[0,0.5],[1,0.5]];portConstraint=eastwest;whiteSpace=wrap;html=1;" parent="KiHBRrctgCg1EZzvczgn-18" vertex="1">
          <mxGeometry y="26" width="160" height="26" as="geometry" />
        </mxCell>
        <mxCell id="KiHBRrctgCg1EZzvczgn-20" value="" style="line;strokeWidth=1;fillColor=none;align=left;verticalAlign=middle;spacingTop=-1;spacingLeft=3;spacingRight=3;rotatable=0;labelPosition=right;points=[];portConstraint=eastwest;strokeColor=inherit;" parent="KiHBRrctgCg1EZzvczgn-18" vertex="1">
          <mxGeometry y="52" width="160" height="8" as="geometry" />
        </mxCell>
        <mxCell id="KiHBRrctgCg1EZzvczgn-21" value="# ctor" style="text;strokeColor=none;fillColor=none;align=left;verticalAlign=top;spacingLeft=4;spacingRight=4;overflow=hidden;rotatable=0;points=[[0,0.5],[1,0.5]];portConstraint=eastwest;whiteSpace=wrap;html=1;" parent="KiHBRrctgCg1EZzvczgn-18" vertex="1">
          <mxGeometry y="60" width="160" height="26" as="geometry" />
        </mxCell>
        <mxCell id="KiHBRrctgCg1EZzvczgn-22" value="# getters" style="text;strokeColor=none;fillColor=none;align=left;verticalAlign=top;spacingLeft=4;spacingRight=4;overflow=hidden;rotatable=0;points=[[0,0.5],[1,0.5]];portConstraint=eastwest;whiteSpace=wrap;html=1;" parent="KiHBRrctgCg1EZzvczgn-18" vertex="1">
          <mxGeometry y="86" width="160" height="26" as="geometry" />
        </mxCell>
        <mxCell id="KiHBRrctgCg1EZzvczgn-23" value="+ toString" style="text;strokeColor=none;fillColor=none;align=left;verticalAlign=top;spacingLeft=4;spacingRight=4;overflow=hidden;rotatable=0;points=[[0,0.5],[1,0.5]];portConstraint=eastwest;whiteSpace=wrap;html=1;" parent="KiHBRrctgCg1EZzvczgn-18" vertex="1">
          <mxGeometry y="112" width="160" height="26" as="geometry" />
        </mxCell>
        <mxCell id="pw6CtbTfDcQKC5DKzmvH-1" value="Pedido" style="swimlane;fontStyle=1;align=center;verticalAlign=top;childLayout=stackLayout;horizontal=1;startSize=26;horizontalStack=0;resizeParent=1;resizeParentMax=0;resizeLast=0;collapsible=1;marginBottom=0;whiteSpace=wrap;html=1;" vertex="1" parent="1">
          <mxGeometry x="160" y="390" width="170" height="164" as="geometry" />
        </mxCell>
        <mxCell id="pw6CtbTfDcQKC5DKzmvH-2" value="#&amp;nbsp;ArrayList&amp;lt;Producto&amp;gt; items" style="text;strokeColor=none;fillColor=none;align=left;verticalAlign=top;spacingLeft=4;spacingRight=4;overflow=hidden;rotatable=0;points=[[0,0.5],[1,0.5]];portConstraint=eastwest;whiteSpace=wrap;html=1;" vertex="1" parent="pw6CtbTfDcQKC5DKzmvH-1">
          <mxGeometry y="26" width="170" height="26" as="geometry" />
        </mxCell>
        <mxCell id="pw6CtbTfDcQKC5DKzmvH-3" value="" style="line;strokeWidth=1;fillColor=none;align=left;verticalAlign=middle;spacingTop=-1;spacingLeft=3;spacingRight=3;rotatable=0;labelPosition=right;points=[];portConstraint=eastwest;strokeColor=inherit;" vertex="1" parent="pw6CtbTfDcQKC5DKzmvH-1">
          <mxGeometry y="52" width="170" height="8" as="geometry" />
        </mxCell>
        <mxCell id="pw6CtbTfDcQKC5DKzmvH-4" value="# ctor" style="text;strokeColor=none;fillColor=none;align=left;verticalAlign=top;spacingLeft=4;spacingRight=4;overflow=hidden;rotatable=0;points=[[0,0.5],[1,0.5]];portConstraint=eastwest;whiteSpace=wrap;html=1;" vertex="1" parent="pw6CtbTfDcQKC5DKzmvH-1">
          <mxGeometry y="60" width="170" height="26" as="geometry" />
        </mxCell>
        <mxCell id="pw6CtbTfDcQKC5DKzmvH-5" value="+ agregarProducto()" style="text;strokeColor=none;fillColor=none;align=left;verticalAlign=top;spacingLeft=4;spacingRight=4;overflow=hidden;rotatable=0;points=[[0,0.5],[1,0.5]];portConstraint=eastwest;whiteSpace=wrap;html=1;" vertex="1" parent="pw6CtbTfDcQKC5DKzmvH-1">
          <mxGeometry y="86" width="170" height="26" as="geometry" />
        </mxCell>
        <mxCell id="pw6CtbTfDcQKC5DKzmvH-6" value="+ calcularTotal()" style="text;strokeColor=none;fillColor=none;align=left;verticalAlign=top;spacingLeft=4;spacingRight=4;overflow=hidden;rotatable=0;points=[[0,0.5],[1,0.5]];portConstraint=eastwest;whiteSpace=wrap;html=1;" vertex="1" parent="pw6CtbTfDcQKC5DKzmvH-1">
          <mxGeometry y="112" width="170" height="26" as="geometry" />
        </mxCell>
        <mxCell id="pw6CtbTfDcQKC5DKzmvH-8" value="+&amp;nbsp;mostrarPedido()" style="text;strokeColor=none;fillColor=none;align=left;verticalAlign=top;spacingLeft=4;spacingRight=4;overflow=hidden;rotatable=0;points=[[0,0.5],[1,0.5]];portConstraint=eastwest;whiteSpace=wrap;html=1;" vertex="1" parent="pw6CtbTfDcQKC5DKzmvH-1">
          <mxGeometry y="138" width="170" height="26" as="geometry" />
        </mxCell>
        <mxCell id="pw6CtbTfDcQKC5DKzmvH-9" value="Cafeteria" style="swimlane;fontStyle=1;align=center;verticalAlign=top;childLayout=stackLayout;horizontal=1;startSize=26;horizontalStack=0;resizeParent=1;resizeParentMax=0;resizeLast=0;collapsible=1;marginBottom=0;whiteSpace=wrap;html=1;" vertex="1" parent="1">
          <mxGeometry x="160" y="585" width="170" height="164" as="geometry" />
        </mxCell>
        <mxCell id="pw6CtbTfDcQKC5DKzmvH-10" value="#&amp;nbsp;ArrayList&amp;lt;Producto&amp;gt; menu" style="text;strokeColor=none;fillColor=none;align=left;verticalAlign=top;spacingLeft=4;spacingRight=4;overflow=hidden;rotatable=0;points=[[0,0.5],[1,0.5]];portConstraint=eastwest;whiteSpace=wrap;html=1;" vertex="1" parent="pw6CtbTfDcQKC5DKzmvH-9">
          <mxGeometry y="26" width="170" height="26" as="geometry" />
        </mxCell>
        <mxCell id="pw6CtbTfDcQKC5DKzmvH-11" value="" style="line;strokeWidth=1;fillColor=none;align=left;verticalAlign=middle;spacingTop=-1;spacingLeft=3;spacingRight=3;rotatable=0;labelPosition=right;points=[];portConstraint=eastwest;strokeColor=inherit;" vertex="1" parent="pw6CtbTfDcQKC5DKzmvH-9">
          <mxGeometry y="52" width="170" height="8" as="geometry" />
        </mxCell>
        <mxCell id="pw6CtbTfDcQKC5DKzmvH-12" value="+ agregarAlMenu()" style="text;strokeColor=none;fillColor=none;align=left;verticalAlign=top;spacingLeft=4;spacingRight=4;overflow=hidden;rotatable=0;points=[[0,0.5],[1,0.5]];portConstraint=eastwest;whiteSpace=wrap;html=1;" vertex="1" parent="pw6CtbTfDcQKC5DKzmvH-9">
          <mxGeometry y="60" width="170" height="26" as="geometry" />
        </mxCell>
        <mxCell id="pw6CtbTfDcQKC5DKzmvH-13" value="+&amp;nbsp;mostrarMenu()" style="text;strokeColor=none;fillColor=none;align=left;verticalAlign=top;spacingLeft=4;spacingRight=4;overflow=hidden;rotatable=0;points=[[0,0.5],[1,0.5]];portConstraint=eastwest;whiteSpace=wrap;html=1;" vertex="1" parent="pw6CtbTfDcQKC5DKzmvH-9">
          <mxGeometry y="86" width="170" height="26" as="geometry" />
        </mxCell>
        <mxCell id="pw6CtbTfDcQKC5DKzmvH-14" value="+ buscarProducto()" style="text;strokeColor=none;fillColor=none;align=left;verticalAlign=top;spacingLeft=4;spacingRight=4;overflow=hidden;rotatable=0;points=[[0,0.5],[1,0.5]];portConstraint=eastwest;whiteSpace=wrap;html=1;" vertex="1" parent="pw6CtbTfDcQKC5DKzmvH-9">
          <mxGeometry y="112" width="170" height="26" as="geometry" />
        </mxCell>
        <mxCell id="pw6CtbTfDcQKC5DKzmvH-16" value="+&amp;nbsp;simularPedido()" style="text;strokeColor=none;fillColor=none;align=left;verticalAlign=top;spacingLeft=4;spacingRight=4;overflow=hidden;rotatable=0;points=[[0,0.5],[1,0.5]];portConstraint=eastwest;whiteSpace=wrap;html=1;" vertex="1" parent="pw6CtbTfDcQKC5DKzmvH-9">
          <mxGeometry y="138" width="170" height="26" as="geometry" />
        </mxCell>
      </root>
    </mxGraphModel>
  </diagram>
</mxfile>
